<?xml version="1.0" encoding="utf-8"?>
<!-- Generator: Adobe Illustrator 28.1.0, SVG Export Plug-In . SVG Version: 6.00 Build 0)  -->
<svg version="1.1"
	 id="svg2" xmlns:sodipodi="http://sodipodi.sourceforge.net/DTD/sodipodi-0.dtd" xmlns:svg="http://www.w3.org/2000/svg" xmlns:inkscape="http://www.inkscape.org/namespaces/inkscape"
	 xmlns="http://www.w3.org/2000/svg" xmlns:xlink="http://www.w3.org/1999/xlink" x="0px" y="0px" viewBox="0 0 300 300"
	 style="enable-background:new 0 0 300 300;" xml:space="preserve">
<style type="text/css">
	.st0{fill:#42C387;stroke:#000000;stroke-width:7;stroke-linecap:round;stroke-linejoin:round;}
	.st1{fill:#FFFFFF;}
</style>
<sodipodi:namedview  bordercolor="#666666" borderopacity="1.0" id="namedview2" inkscape:current-layer="layer1" inkscape:cx="109.68313" inkscape:cy="252.83903" inkscape:deskcolor="#d1d1d1" inkscape:document-units="pt" inkscape:pagecheckerboard="0" inkscape:pageopacity="0.0" inkscape:showpageshadow="2" inkscape:window-height="1051" inkscape:window-maximized="1" inkscape:window-width="1728" inkscape:window-x="0" inkscape:window-y="38" inkscape:zoom="1.6730012" pagecolor="#ffffff">
	</sodipodi:namedview>
<g id="layer1" inkscape:groupmode="layer" inkscape:label="Background">
	<ellipse id="path3" class="st0" cx="150.7" cy="132.4" rx="117.1" ry="114.9"/>
	
		<path id="ellipse4_00000083086045018253510860000004072707813432344739_" sodipodi:arc-type="arc" sodipodi:cx="150.68884" sodipodi:cy="132.41641" sodipodi:end="2.2112947" sodipodi:open="true" sodipodi:rx="117.06435" sodipodi:ry="114.8664" sodipodi:start="1.1412253" sodipodi:type="arc" class="st1" d="
		M206.8,240.2c-16,7.2-35.2,14-52.2,13.8c-24.3-0.3-46.3-11.3-66.5-26.1l65.1-26.9l40.3,31.3L206.8,240.2"/>
	<path id="path5" class="st1" d="M101.3,228.6l43.5-66.8l35,0.4l0.9,73.5L101.3,228.6z"/>
	
		<path id="path4" inkscape:label="path4" sodipodi:nodetypes="scccccccccscscsccccscccccsccccccccssccscccccccccccscccccsccscc" class="st1" d="
		M105.3,2.5c-1.6,0-3.1,0.4-4.8,0.9c-2.2,0.7-5.8,2.4-8,3.8c-2.2,1.3-5.6,3.1-7.5,3.8c-1.8,0.8-5.3,2.8-7.5,4.5
		c-2.2,1.7-6.2,4.6-8.9,6.4c-5.3,3.7-8.6,8.3-11,15.7c-1.1,3.2-3.2,6.5-5.8,9c-9.2,8.9-17.6,23.1-21.4,36c-5.9,20.3-7.2,29.5-5,35.5
		c0.9,2.4,2.4,6.7,3.2,9.4c0.9,2.7,3.3,7.6,5.4,10.9c2.1,3.3,3.9,6.9,3.9,8c0,1.3,6.5,8.6,18,20.2c9.9,10,18,18.6,18,19.1
		c0,0.6-2.2,5.9-5,11.9c-6.2,13.7-6.6,11.7,4.2,24c10.1,11.5,10,11.3,21.6,33.4c11.4,21.9,9.4,21.1,18.1,8.1
		c4.1-6.1,7.8-11.1,8.2-11.1c1.2,0,7.2,4.9,32.1,26c23.7,20.1,23.9,20.2,24.7,14.8c0.8-4.9-38.9-62.9-48.8-71.2
		c-3.2-2.7-5.9-5.2-6.1-5.6c-0.5-1.2,21.1-44.1,21.8-43.2c1.4,1.4,6.9,21,6.9,24.2c0,4,1.2,3.3,4.5-2.7c2.4-4.2,18.9-18.2,20.1-16.9
		c0.2,0.2-1.4,15.2-3.6,33.3c-4.9,40.8-4.9,37.6,0.7,48.7l4.7,9.3l1.2-9c0.7-4.9,1.1-9.7,0.8-10.6c-0.6-2.1,1-3.3,2.3-1.6
		c0.6,0.7,3.4,9.5,6.4,19.5s5.7,18.3,6,18.3c0.5,0,16.7-26.6,19.6-32.2c0.2-0.4-1.9-3.6-4.7-7.3c-2.8-3.6-5-7-5-7.5
		s-4.7-7.2-10.5-15L184,209l3.8-5.2c2.1-2.9,4.2-5.9,4.7-6.8c0.5-0.9,1.2-6.7,1.5-13.2c0.7-14.5,1.3-15.4,16.9-22.1
		c11.6-5,13.9-6.7,17.5-12.4c11.1-17.6-9.4-16.1-10.6-29.5c-0.4-4.5-1-5.5-3.9-7.7c-9.6-7.3-10.4-8.6-12.2-20.3
		c-1.8-11.5-4.8-18.1-8.9-19.6c-1.9-0.7-2.1-1.4-1.9-7.3c0.4-11.8-3.7-15.7-16.6-15.8h-6.8l-2-4.2c-2.2-4.5-10.6-10-17.4-11.2
		c-11.2-2.1-22.7-11.5-16.9-13.9c0.8-0.3,0.6-0.5-0.4-0.5c-1-0.1-1.9-1.3-2.2-2.9c-0.4-2-2.2-3.9-5.9-6.4
		C114.8,4.5,110,2.4,105.3,2.5z"/>
</g>
<g id="g2" transform="translate(0.000000,300.000000) scale(0.050000,-0.050000)">
	<path id="path1" d="M2010,5932c-44-14-116-47-160-75c-44-27-111-62-149-77c-37-15-105-56-150-90c-44-34-124-91-177-127
		c-107-74-172-166-221-314c-21-64-64-131-115-180c-184-178-353-462-428-719c-119-407-144-590-100-710c18-49,47-134,64-188
		s66-152,108-218c43-66,78-139,78-161c0-26,130-172,360-404c198-200,360-372,360-382c0-11-45-118-100-238c-125-275-132-234,85-481
		c203-231,200-226,432-669c229-439,189-421,363-161c81,122,155,222,165,222c23,0,144-98,642-520c475-403,477-404,494-296
		c16,98-778,1257-975,1423c-64,54-119,105-122,113c-10,25,422,882,437,865c27-29,139-421,139-484c0-80,24-65,90,55
		c48,85,377,364,401,339c4-4-28-304-71-666c-98-817-99-752,14-974l94-185l25,180c14,99,21,195,15,213c-12,42,21,65,47,32
		c11-14,68-189,127-390s113-365,120-365c10,0,334,533,392,645c4,8-38,73-93,146c-56,72-101,139-101,149s-95,144-211,299l-210,281
		l77,105c42,58,85,119,95,135c10,17,23,135,29,264c13,290,26,308,337,443c231,100,278,134,350,249c104,165,82,266-86,396
		c-110,86-117,96-126,194c-9,89-20,111-77,154c-193,146-209,173-245,406c-36,230-95,361-177,392c-39,14-42,29-38,147
		c8,236-74,314-332,316h-136l-40,84c-44,91-212,200-348,225c-225,42-454,229-337,277c16,6,13,10-7,11s-38,25-44,58
		c-8,40-43,77-118,127C2242,5945,2143,5974,2010,5932z M2549,5469c65-16,168-57,229-89c62-32,145-64,185-71c84-15,197-78,197-111
		c0-15-11-14-33,4c-52,44-14-58,51-134c51-60,56-62,282-73c318-17,376-79,321-345c-16-77-16-75-19,44c-4,210-98,210-258,1
		c-96-128-144-147-144-58c0,39,21,76,70,120c110,100,78,179-45,115c-162-83-191-475-57-759l49-103l2,110c4,179,177,410,322,430
		c162,22,265-78,287-280l11-100l-25,110c-27,120-89,175-156,139c-46-25-77-24-38,1c26,17,26,19-2,20c-93,1-193-198-227-452
		c-18-129,20-165,253-238c181-57,180-57,283-28l77,21l-50,54c-64,66-86,123-101,263l-11,110l20-90c10-49,23-109,29-133
		c5-24,67-89,139-145c151-119,153-124,59-168c-86-42-154-43-280-5c-141,43-133,26,44-89c157-103,180-109,298-71
		c52,17,224-111,241-180c73-290-503-314-845-36l-104,85l40-91c52-117,84-118-359,14l-385,115l-145-38c-214-56-203-61-252,131
		c-53,212-52,226,6,369l47,117l-59,94c-32,52-69,90-82,85s-89-39-169-74c-143-65-146-65-187-28c-148,134-202,409-117,605
		c54,127,58,122-186,193c-223,65-220,59-120,228C1825,5379,2217,5556,2549,5469z M1732,3625c22-14,88-131,88-155c0-6-28,3-61,21
		c-70,36-139,27-235-31c-225-137,160-541,421-442c97,37,66,66-56,51c-168-21-330,170-280,329c19,58,68,53,83-8c15-59,43-64,81-15
		c23,30,25,20,15-76c-19-173,78-243,152-109c18,33,59,69,91,80c84,29,87,96,4,121c-59,18-118,113-88,142c18,19,320-200,350-254
		c135-241-416-425-700-234c-275,185-293,420-39,522c43,17,84,41,91,52C1664,3643,1700,3646,1732,3625z"/>
	<path id="path2" d="M2770,5240c-22-9-28-18-14-19c59-3-6-41-154-90c-182-61-200-77-271-248c-90-215-41-289,74-113
		c88,135,355,273,355,183c0-16,23-57,51-90l51-61l-153-70c-87-41-147-80-139-91c7-12,5-21-4-22c-9,0-47-27-86-60l-70-59l90,11
		c327,43,544,169,592,346c15,51,32,112,39,135c10,35,1,47-47,64c-44,15-67,41-85,97l-26,77l-21-70l-20-70l-8,66
		c-5,55-73,117-110,103C2812,5258,2792,5249,2770,5240z"/>
</g>
</svg>
