<?xml version="1.0" encoding="UTF-8" standalone="no"?>
<svg
   version="1.0"
   width="300pt"
   height="300pt"
   viewBox="0 0 300 300"
   preserveAspectRatio="xMidYMid"
   id="svg2"
   xmlns="http://www.w3.org/2000/svg"
   xmlns:svg="http://www.w3.org/2000/svg">
  <defs
     id="defs2" />
  <metadata
     id="metadata1">
Created by potrace 1.10, written by Peter Selinger 2001-2011
</metadata>
  <g
     id="layer1">
    <ellipse
       style="fill:#42c387;fill-opacity:1;stroke:#000000;stroke-width:0.985078;stroke-linecap:round;stroke-linejoin:round"
       id="path3"
       cx="150.68884"
       cy="132.41641"
       rx="117.06435"
       ry="114.8664" />
    <path
       style="fill:#ffffff;fill-opacity:1;stroke:#000000;stroke-width:0.985078;stroke-linecap:round;stroke-linejoin:round"
       id="ellipse4"
       d="M 199.4439,236.84657 A 117.06435,114.8664 0 0 1 80.731762,224.51607" />
    <path
       style="fill:#ffffff;stroke:none;stroke-width:0.75px;stroke-linecap:butt;stroke-linejoin:miter;stroke-opacity:1"
       d="m 101.31493,228.63104 43.48473,-66.79613 34.9671,0.4483 0.89659,73.52057 z"
       id="path5" />
    <path
       id="path4"
       style="fill:#ffffff;fill-opacity:1"
       d="m 2105.7129,5949.5215 c -31.3281,-0.9688 -62.4629,-7.0196 -95.7129,-17.5195 -44,-14 -115.9903,-47.0001 -159.9902,-75 -44,-27 -111.004,-61.9922 -149.0039,-76.9922 -37,-15 -105.0001,-56.0001 -150,-90 -44,-34 -124.0118,-91.002 -177.0118,-127.002 -106.9999,-73.9999 -171.9863,-166.004 -220.9863,-314.0039 -21,-63.9999 -64.0196,-131 -115.0195,-180 C 853.98847,4891.0041 684.99016,4606.9997 609.99023,4350 490.99035,3943.0004 466.00004,3759.9901 510,3639.9902 c 17.99998,-48.9999 47.01369,-133.9981 64.01367,-187.998 16.99998,-54 65.98833,-151.9981 107.98828,-217.9981 42.99996,-65.9999 77.98828,-138.9863 77.98828,-160.9863 0,-26 130.00023,-172.0041 359.99997,-404.0039 197.9998,-199.9998 360,-372.002 360,-382.0019 0,-11 -44.9903,-118.008 -99.9902,-238.0079 -124.9999,-274.9997 -132.0095,-233.9963 84.9902,-480.9961 202.9998,-230.9997 200.012,-225.9945 432.0118,-668.99409 228.9997,-438.99956 188.9884,-421.01537 362.9882,-161.01563 81,121.99988 155,222.01172 165,222.01172 23,0 144.0123,-97.99066 642.0118,-519.99023 474.9995,-402.999601 477.0039,-404.015521 494.0039,-296.01563 15.9999,97.9999 -778.0002,1257.00796 -975,1423.00786 -64,53.9999 -118.9922,104.998 -121.9922,112.998 -10,25 421.9922,881.9902 436.9922,864.9902 26.9999,-28.9999 138.9843,-420.9844 138.9843,-483.9843 0,-80 24.0001,-65.0097 90,54.9902 48,84.9999 377.0157,363.9941 401.0157,338.9941 4,-4 -28.0157,-303.9769 -71.0157,-665.9765 -97.9999,-816.99921 -98.9959,-752.0042 14.0039,-974.00393 L 3568.0078,630 3592.998,810 c 14,98.9999 21,194.9883 15,212.9883 -11.9999,41.9999 20.9923,65.0214 46.9922,32.0215 11,-14 68.002,-189.00024 127.002,-390.00003 58.9999,-200.9998 113,-365.00977 120,-365.00977 10,0 334.0215,533.00011 392.0215,645 4,7.99999 -38.0177,72.9864 -93.0176,145.9863 -56,72 -100.9863,139.0039 -100.9863,149.0039 0,10 -94.9962,144.0041 -210.9961,299.0039 l -210,281.0157 76.9922,105 c 41.9999,57.9999 84.9804,119 94.9804,135 10,16.9999 23.0039,134.9942 29.0039,263.9941 13,289.9997 26.0023,307.9982 337.002,442.9981 230.9998,99.9999 278.0098,133.9942 350.0098,248.9941 221.8415,351.9603 -187.3415,321.5912 -211.9922,590.0098 -9,88.9999 -20.0216,110.9844 -77.0215,153.9843 -192.9998,145.9999 -208.9805,172.9964 -244.9805,405.9961 -36,229.9998 -95.0118,361.0215 -177.0117,392.0215 -39,14 -41.998,28.9826 -37.9981,146.9824 8,235.9998 -73.9924,313.9961 -331.9921,315.9961 h -135.9961 l -40.0196,84.0235 c -43.9999,90.9999 -211.9884,200 -347.9882,225 -224.9998,41.9999 -454.0019,229.002 -337.002,277.0019 16,6 12.998,9.9863 -7.002,10.9863 -19.9999,1 -38.0039,25.0079 -44.0039,58.0079 -8,39.9999 -43.0078,77.002 -118.0078,127.0019 -160.4998,106.4999 -256.2891,149.4199 -350.2734,146.5137 z"
       transform="matrix(0.05,0,0,-0.05,0,300)" />
  </g>
  <g
     transform="matrix(0.05,0,0,-0.05,0,300)"
     fill="#000000"
     stroke="none"
     id="g2">
    <path
       d="m 2010,5932 c -44,-14 -116,-47 -160,-75 -44,-27 -111,-62 -149,-77 -37,-15 -105,-56 -150,-90 -44,-34 -124,-91 -177,-127 -107,-74 -172,-166 -221,-314 -21,-64 -64,-131 -115,-180 C 854,4891 685,4607 610,4350 491,3943 466,3760 510,3640 c 18,-49 47,-134 64,-188 17,-54 66,-152 108,-218 43,-66 78,-139 78,-161 0,-26 130,-172 360,-404 198,-200 360,-372 360,-382 0,-11 -45,-118 -100,-238 -125,-275 -132,-234 85,-481 203,-231 200,-226 432,-669 229,-439 189,-421 363,-161 81,122 155,222 165,222 23,0 144,-98 642,-520 475,-403 477,-404 494,-296 16,98 -778,1257 -975,1423 -64,54 -119,105 -122,113 -10,25 422,882 437,865 27,-29 139,-421 139,-484 0,-80 24,-65 90,55 48,85 377,364 401,339 4,-4 -28,-304 -71,-666 -98,-817 -99,-752 14,-974 l 94,-185 25,180 c 14,99 21,195 15,213 -12,42 21,65 47,32 11,-14 68,-189 127,-390 59,-201 113,-365 120,-365 10,0 334,533 392,645 4,8 -38,73 -93,146 -56,72 -101,139 -101,149 0,10 -95,144 -211,299 l -210,281 77,105 c 42,58 85,119 95,135 10,17 23,135 29,264 13,290 26,308 337,443 231,100 278,134 350,249 104,165 82,266 -86,396 -110,86 -117,96 -126,194 -9,89 -20,111 -77,154 -193,146 -209,173 -245,406 -36,230 -95,361 -177,392 -39,14 -42,29 -38,147 8,236 -74,314 -332,316 h -136 l -40,84 c -44,91 -212,200 -348,225 -225,42 -454,229 -337,277 16,6 13,10 -7,11 -20,1 -38,25 -44,58 -8,40 -43,77 -118,127 -214,142 -313,171 -446,129 z m 539,-463 c 65,-16 168,-57 229,-89 62,-32 145,-64 185,-71 84,-15 197,-78 197,-111 0,-15 -11,-14 -33,4 -52,44 -14,-58 51,-134 51,-60 56,-62 282,-73 318,-17 376,-79 321,-345 -16,-77 -16,-75 -19,44 -4,210 -98,210 -258,1 -96,-128 -144,-147 -144,-58 0,39 21,76 70,120 110,100 78,179 -45,115 -162,-83 -191,-475 -57,-759 l 49,-103 2,110 c 4,179 177,410 322,430 162,22 265,-78 287,-280 l 11,-100 -25,110 c -27,120 -89,175 -156,139 -46,-25 -77,-24 -38,1 26,17 26,19 -2,20 -93,1 -193,-198 -227,-452 -18,-129 20,-165 253,-238 181,-57 180,-57 283,-28 l 77,21 -50,54 c -64,66 -86,123 -101,263 l -11,110 20,-90 c 10,-49 23,-109 29,-133 5,-24 67,-89 139,-145 151,-119 153,-124 59,-168 -86,-42 -154,-43 -280,-5 -141,43 -133,26 44,-89 157,-103 180,-109 298,-71 52,17 224,-111 241,-180 73,-290 -503,-314 -845,-36 l -104,85 40,-91 c 52,-117 84,-118 -359,14 l -385,115 -145,-38 c -214,-56 -203,-61 -252,131 -53,212 -52,226 6,369 l 47,117 -59,94 c -32,52 -69,90 -82,85 -13,-5 -89,-39 -169,-74 -143,-65 -146,-65 -187,-28 -148,134 -202,409 -117,605 54,127 58,122 -186,193 -223,65 -220,59 -120,228 190,321 582,498 914,411 z M 1732,3625 c 22,-14 88,-131 88,-155 0,-6 -28,3 -61,21 -70,36 -139,27 -235,-31 -225,-137 160,-541 421,-442 97,37 66,66 -56,51 -168,-21 -330,170 -280,329 19,58 68,53 83,-8 15,-59 43,-64 81,-15 23,30 25,20 15,-76 -19,-173 78,-243 152,-109 18,33 59,69 91,80 84,29 87,96 4,121 -59,18 -118,113 -88,142 18,19 320,-200 350,-254 135,-241 -416,-425 -700,-234 -275,185 -293,420 -39,522 43,17 84,41 91,52 15,24 51,27 83,6 z"
       id="path1"
       style="fill:#000000" />
    <path
       d="m 2770,5240 c -22,-9 -28,-18 -14,-19 59,-3 -6,-41 -154,-90 -182,-61 -200,-77 -271,-248 -90,-215 -41,-289 74,-113 88,135 355,273 355,183 0,-16 23,-57 51,-90 l 51,-61 -153,-70 c -87,-41 -147,-80 -139,-91 7,-12 5,-21 -4,-22 -9,0 -47,-27 -86,-60 l -70,-59 90,11 c 327,43 544,169 592,346 15,51 32,112 39,135 10,35 1,47 -47,64 -44,15 -67,41 -85,97 l -26,77 -21,-70 -20,-70 -8,66 c -5,55 -73,117 -110,103 -2,-1 -22,-10 -44,-19 z"
       id="path2" />
  </g>
</svg>
